<?xml version="1.0" standalone="no"?>
<!DOCTYPE svg PUBLIC "-//W3C//DTD SVG 20010904//EN"
 "http://www.w3.org/TR/2001/REC-SVG-20010904/DTD/svg10.dtd">
<svg version="1.0" xmlns="http://www.w3.org/2000/svg"
 width="700.000000pt" height="700.000000pt" viewBox="0 0 700.000000 700.000000"
 preserveAspectRatio="xMidYMid meet">
<metadata>
Created by potrace 1.14, written by Peter Selinger 2001-2017
</metadata>
<g transform="translate(0.000000,700.000000) scale(0.100000,-0.100000)"
fill="#000000" stroke="none">
<path d="M4670 6978 c-327 -68 -668 -269 -895 -529 -64 -74 -74 -87 -137 -183
-190 -288 -280 -618 -244 -898 2 -21 7 -41 10 -46 7 -12 121 -5 224 14 266 48
558 210 750 414 93 98 136 154 238 315 69 110 168 365 190 493 2 12 8 48 14
81 10 56 14 259 6 311 -2 14 -4 30 -5 36 -1 16 -49 13 -151 -8z"/>
<path d="M2189 5359 c-403 -33 -779 -216 -1094 -533 -130 -131 -139 -141 -233
-271 -106 -147 -240 -429 -277 -585 -28 -115 -55 -246 -60 -290 -4 -30 -8 -57
-10 -60 -9 -14 -19 -223 -19 -380 0 -186 9 -344 28 -466 3 -21 8 -59 12 -84 3
-25 10 -67 15 -95 6 -27 12 -61 15 -75 2 -14 14 -65 25 -115 12 -49 22 -97 24
-105 12 -54 84 -285 120 -386 180 -496 477 -1010 810 -1404 70 -82 236 -240
315 -298 105 -79 260 -156 365 -183 85 -21 259 -30 345 -16 109 17 145 29 447
156 137 58 311 107 418 118 135 14 375 8 480 -12 97 -19 322 -93 350 -115 18
-15 249 -108 305 -124 76 -21 131 -28 230 -31 355 -8 688 225 1076 755 39 52
105 149 148 215 44 66 96 146 117 177 22 32 39 60 39 63 0 3 11 23 25 45 56
89 163 297 248 484 l54 120 -94 42 c-168 76 -309 173 -445 307 -241 237 -388
532 -443 887 -21 131 -16 389 9 505 74 347 220 606 472 836 54 48 179 140 239
174 28 16 52 30 54 31 21 16 -242 276 -379 375 -229 166 -429 258 -671 308
-126 26 -181 32 -297 31 -234 -1 -420 -36 -667 -125 -421 -153 -512 -175 -695
-170 -161 4 -290 35 -585 140 -303 107 -437 140 -615 151 -52 3 -99 7 -105 8
-5 1 -48 -1 -96 -5z"/>
</g>
</svg>
