<svg width="60" height="61" viewBox="0 0 60 61" fill="none" xmlns="http://www.w3.org/2000/svg">
<g clip-path="url(#clip0_9_4805)">
<path d="M8.32884 19.9121C7.29504 19.9121 6.4179 20.2726 5.69688 20.9936C4.97585 21.7147 4.61523 22.5799 4.61523 23.5897V39.0944C4.61523 40.1295 4.97575 41.0059 5.69688 41.727C6.4179 42.448 7.29504 42.8087 8.32884 42.8087C9.36188 42.8087 10.2337 42.4481 10.9435 41.727C11.652 41.006 12.0072 40.1295 12.0072 39.0944V23.5897C12.0072 22.5798 11.6467 21.7147 10.9255 20.9936C10.2044 20.2726 9.33866 19.9121 8.32884 19.9121Z" fill="white"/>
<path d="M38.1846 5.99291L40.7448 1.27014C40.9128 0.957473 40.853 0.717711 40.5649 0.549118C40.2521 0.403742 40.0118 0.477406 39.8439 0.764904L37.2479 5.52543C34.9637 4.5155 32.5477 4.00961 30.0001 4.00961C27.4519 4.00961 25.0357 4.51561 22.7523 5.52543L20.1562 0.764904C19.9875 0.477406 19.7472 0.404393 19.4352 0.549118C19.1464 0.71847 19.0866 0.957473 19.2553 1.27014L21.8156 5.99291C19.2195 7.31681 17.1519 9.1606 15.6136 11.5283C14.0752 13.8973 13.3057 16.486 13.3057 19.2992H46.6582C46.6582 16.4867 45.8886 13.8978 44.3503 11.5283C42.8118 9.1606 40.7562 7.31681 38.1846 5.99291ZM23.3831 12.8623C23.1062 13.1398 22.7755 13.2779 22.3911 13.2779C22.006 13.2779 21.682 13.1398 21.4178 12.8623C21.1535 12.586 21.0213 12.2567 21.0213 11.871C21.0213 11.4866 21.1535 11.1566 21.4178 10.8797C21.682 10.6035 22.0068 10.4654 22.3911 10.4654C22.7755 10.4654 23.1062 10.6035 23.3831 10.8797C23.6593 11.1572 23.798 11.4866 23.798 11.871C23.7973 12.256 23.6586 12.586 23.3831 12.8623ZM38.5809 12.8623C38.3161 13.1398 37.9914 13.2779 37.6077 13.2779C37.2224 13.2779 36.8919 13.1398 36.6155 12.8623C36.3388 12.586 36.2007 12.2567 36.2007 11.871C36.2007 11.4866 36.3388 11.1566 36.6155 10.8797C36.8919 10.6035 37.2224 10.4654 37.6077 10.4654C37.9921 10.4654 38.316 10.6035 38.5809 10.8797C38.8454 11.1572 38.9774 11.4866 38.9774 11.871C38.9774 12.256 38.8453 12.586 38.5809 12.8623Z" fill="white"/>
<path d="M13.4492 44.6103C13.4492 45.7171 13.8336 46.654 14.6025 47.4229C15.372 48.1918 16.3089 48.5761 17.415 48.5761H20.0834L20.1199 56.7621C20.1199 57.7958 20.4804 58.6736 21.2015 59.3947C21.9225 60.1158 22.7883 60.4764 23.7975 60.4764C24.8307 60.4764 25.7083 60.1158 26.4295 59.3947C27.1506 58.6736 27.5111 57.7959 27.5111 56.7621V48.5769H32.4869V56.7621C32.4869 57.7958 32.8473 58.6736 33.5684 59.3947C34.2896 60.1158 35.1665 60.4764 36.2004 60.4764C37.2335 60.4764 38.1112 60.1158 38.8323 59.3947C39.5535 58.6736 39.9139 57.7959 39.9139 56.7621V48.5769H42.6183C43.6998 48.5769 44.6247 48.1924 45.395 47.4235C46.1637 46.6547 46.5483 45.7178 46.5483 44.6111V20.5957H13.4492V44.6103Z" fill="white"/>
<path d="M51.6709 19.9121C50.6609 19.9121 49.7958 20.2673 49.0747 20.9757C48.3537 21.6855 47.9932 22.5573 47.9932 23.5897V39.0944C47.9932 40.1295 48.3536 41.0059 49.0747 41.727C49.7958 42.4481 50.6616 42.8087 51.6709 42.8087C52.704 42.8087 53.5817 42.4481 54.3028 41.727C55.0239 41.0059 55.3843 40.1295 55.3843 39.0944V23.5897C55.3843 22.5572 55.0239 21.6855 54.3028 20.9757C53.5817 20.2673 52.704 19.9121 51.6709 19.9121Z" fill="white"/>
</g>
<defs>
<clipPath id="clip0_9_4805">
<rect width="60" height="60" fill="white" transform="translate(0 0.476562)"/>
</clipPath>
</defs>
</svg>
