<svg width="60" height="61" viewBox="0 0 60 61" fill="none" xmlns="http://www.w3.org/2000/svg">
<g clip-path="url(#clip0_9_4793)">
<path d="M46.4408 34.1088C44.7903 25.8025 52.6744 20.9309 52.6744 20.9309C52.6744 20.9309 49.6027 16.4868 44.4402 15.3435C39.2803 14.1977 36.6978 15.6293 34.1203 16.703C31.5404 17.7793 30.253 17.7793 30.253 17.7793C26.5299 17.7793 23.8082 13.8373 16.7147 15.6319C11.8277 16.8652 6.68317 22.5067 5.75367 29.2398C4.82417 35.9755 6.82999 44.5702 10.6973 51.2313C14.5646 57.8975 18.5042 60.4028 21.3003 60.4749C24.0966 60.5443 26.8877 58.4717 30.253 57.967C33.6209 57.4674 35.6936 59.1875 38.997 60.117C42.2876 61.044 43.4411 60.184 47.2312 56.9603C51.0316 53.7365 54.4716 44.4905 54.4716 44.4905C54.4716 44.4905 48.0912 42.4202 46.4408 34.1088Z" fill="white"/>
<path d="M39.1335 9.96983C42.7896 6.24419 41.5512 0.476562 41.5512 0.476562C41.5512 0.476562 36.4171 1.37777 32.9771 4.95671C29.5397 8.53828 30.1087 14.1951 30.1087 14.1951C30.1087 14.1951 35.4772 13.6931 39.1335 9.96983Z" fill="white"/>
</g>
<defs>
<clipPath id="clip0_9_4793">
<rect width="60" height="60" fill="white" transform="translate(0 0.476562)"/>
</clipPath>
</defs>
</svg>
