<svg width="9" height="17" viewBox="0 0 9 17" fill="none" xmlns="http://www.w3.org/2000/svg">
<path d="M2.5058 9.55191C2.44316 9.55191 1.06497 9.55191 0.438515 9.55191C0.104408 9.55191 0 9.42662 0 9.1134C0 8.27813 0 7.42198 0 6.58671C0 6.25261 0.12529 6.1482 0.438515 6.1482H2.5058C2.5058 6.08555 2.5058 4.87442 2.5058 4.31061C2.5058 3.47534 2.65197 2.68184 3.06961 1.95098C3.50812 1.19924 4.13457 0.698082 4.92807 0.405739C5.45012 0.217804 5.97216 0.134277 6.53596 0.134277H8.58237C8.87471 0.134277 9 0.259567 9 0.551911V2.93242C9 3.22476 8.87471 3.35005 8.58237 3.35005C8.01856 3.35005 7.45476 3.35005 6.89095 3.37094C6.32715 3.37094 6.0348 3.6424 6.0348 4.22709C6.01392 4.85354 6.0348 5.4591 6.0348 6.10644H8.45708C8.79118 6.10644 8.91647 6.23173 8.91647 6.56583V9.09251C8.91647 9.42662 8.81207 9.53103 8.45708 9.53103C7.70534 9.53103 6.09745 9.53103 6.0348 9.53103V16.3385C6.0348 16.6934 5.93039 16.8187 5.55452 16.8187C4.67749 16.8187 3.82135 16.8187 2.94432 16.8187C2.63109 16.8187 2.5058 16.6934 2.5058 16.3802C2.5058 14.1876 2.5058 9.61456 2.5058 9.55191Z" fill="#F7F7EE"/>
</svg>
