<svg width="15" height="16" viewBox="0 0 15 16" fill="none" xmlns="http://www.w3.org/2000/svg">
<path d="M14.9963 15.9762V15.9756H15V10.4571C15 7.75737 14.4247 5.67773 11.3004 5.67773C9.79839 5.67773 8.79045 6.51034 8.37897 7.29969H8.33552V5.92977H5.37317V15.9756H8.45779V11.0013C8.45779 9.69156 8.70356 8.42509 10.3092 8.42509C11.8912 8.42509 11.9148 9.91977 11.9148 11.0853V15.9762H14.9963Z" fill="#F7F7EE"/>
<path d="M0.223877 5.90234H3.35821V15.7531H0.223877V5.90234Z" fill="#F7F7EE"/>
<path d="M1.79104 0.976562C0.802303 0.976562 0 1.77513 0 2.75926C0 3.74339 0.802303 4.55865 1.79104 4.55865C2.77979 4.55865 3.58209 3.74339 3.58209 2.75926C3.58147 1.77513 2.77916 0.976563 1.79104 0.976563V0.976562Z" fill="#F7F7EE"/>
</svg>
