<svg width="17" height="15" viewBox="0 0 17 15" fill="none" xmlns="http://www.w3.org/2000/svg">
<path d="M17 2.2055C16.3678 2.48281 15.6942 2.66663 14.9919 2.75587C15.7144 2.3245 16.2658 1.64662 16.5251 0.829562C15.8514 1.23119 15.1077 1.51488 14.3151 1.67319C13.6754 0.992125 12.7638 0.570312 11.7693 0.570312C9.83981 0.570312 8.28644 2.13644 8.28644 4.05638C8.28644 4.33263 8.30981 4.59825 8.36719 4.85112C5.46975 4.70981 2.90594 3.32113 1.18362 1.20569C0.882937 1.72738 0.706563 2.3245 0.706563 2.96731C0.706563 4.17431 1.32812 5.24425 2.25463 5.86369C1.69469 5.85306 1.14538 5.6905 0.68 5.43444C0.68 5.44506 0.68 5.45887 0.68 5.47269C0.68 7.16631 1.88806 8.57306 3.47225 8.89713C3.18856 8.97469 2.87937 9.01188 2.5585 9.01188C2.33538 9.01188 2.11012 8.99912 1.89869 8.95238C2.35025 10.3326 3.63163 11.3472 5.15525 11.3802C3.9695 12.3077 2.46394 12.8666 0.834063 12.8666C0.54825 12.8666 0.274125 12.8539 0 12.8188C1.54381 13.8144 3.37344 14.3828 5.3465 14.3828C11.7597 14.3828 15.266 9.07031 15.266 4.46544C15.266 4.31137 15.2607 4.16263 15.2533 4.01494C15.9449 3.52406 16.5261 2.911 17 2.2055Z" fill="#F7F7EE"/>
</svg>
